<svg xmlns:xlink="http://www.w3.org/1999/xlink" xmlns="http://www.w3.org/2000/svg" class="cat-button__icon" width="31" height="31" viewBox="0 0 31 31"><defs><g id="back">
          <path d="M0.738281 0.813965H6.73828V6.81396H0.738281V0.813965Z"></path>
          <path d="M6.73828 6.81396H12.7383V12.814H6.73828V6.81396Z"></path>
          <path d="M0.738281 12.814H6.73828V18.814H0.738281V12.814Z"></path>
          <path d="M6.73828 18.814H12.7383V24.814H6.73828V18.814Z"></path>
          <path d="M0.738281 24.814H6.73828V30.814H0.738281V24.814Z"></path>
          <path d="M12.7383 0.813965H18.7383V6.81396H12.7383V0.813965Z"></path>
          <path d="M18.7383 6.81396H24.7383V12.814H18.7383V6.81396Z"></path>
          <path d="M12.7383 12.814H18.7383V18.814H12.7383V12.814Z"></path>
          <path d="M18.7383 18.814H24.7383V24.814H18.7383V18.814Z"></path>
          <path d="M12.7383 24.814H18.7383V30.814H12.7383V24.814Z"></path>
          <path d="M24.7383 0.813965H30.7383V6.81396H24.7383V0.813965Z"></path>
          <path d="M24.7383 12.814H30.7383V18.814H24.7383V12.814Z"></path>
          <path d="M24.7383 24.814H30.7383V30.814H24.7383V24.814Z"></path>
        </g></defs>
                        <use xlink:href="#back"></use>
                      </svg>