<svg xmlns:xlink="http://www.w3.org/1999/xlink" xmlns="http://www.w3.org/2000/svg" class="cat-button__icon" width="48" height="17" viewBox="0 0 48 17"><defs><g id="hair-mustache">
          <path fill-rule="evenodd" clip-rule="evenodd" d="M26.7774 2.75341C25.8385 3.16945 25.0773 3.70076 24.6788 4.17175L24.1062 4.84826L23.5337 4.17174C23.1086 3.66931 22.0174 2.71687 20.531 2.31141C19.0932 1.9192 17.2207 2.01778 15.1012 3.68755C12.1069 6.0464 10.1596 7.28971 8.67129 7.84928C7.91061 8.13528 7.25576 8.24873 6.63401 8.23759C6.01906 8.22658 5.47547 8.09376 4.95539 7.94012C4.13933 7.69903 3.69535 7.04346 3.46463 6.39595C3.23585 5.75386 3.17194 5.0109 3.17194 4.34982C3.17194 4.20007 3.17524 4.05171 3.18111 3.90633C2.50368 5.29268 1.96868 7.32118 2.41299 9.42132C3.15284 12.9184 7.26684 15.2891 12.5634 14.7201C15.1716 14.4399 17.2064 14.025 18.9704 13.6653C19.0338 13.6524 19.0969 13.6395 19.1596 13.6267C20.9534 13.2613 22.5228 12.9491 24.1062 12.9491C25.6896 12.9491 27.259 13.2613 29.0528 13.6267C29.1156 13.6395 29.1786 13.6524 29.242 13.6653C31.006 14.025 33.0408 14.44 35.649 14.7202C40.9456 15.2892 45.0596 12.9184 45.7995 9.42138C46.2438 7.32124 45.7088 5.29273 45.0314 3.90638C45.0372 4.05176 45.0405 4.20013 45.0405 4.34989C45.0405 5.01096 44.9766 5.75392 44.7478 6.39601C44.5171 7.04352 44.0731 7.69909 43.2571 7.94018C42.737 8.09382 42.1934 8.22664 41.5785 8.23765C40.9567 8.24879 40.3019 8.13534 39.5412 7.84934C38.0529 7.28977 36.1055 6.04646 33.1113 3.68761L33.0942 3.67415L33.0779 3.65973C32.7901 3.4046 32.2434 2.99895 31.5872 2.66083C30.9231 2.31859 30.2161 2.08154 29.5884 2.08154C28.7249 2.08154 27.7086 2.34076 26.7774 2.75341ZM43.3075 2.07541L43.2913 1.99903V1.92056C43.2913 1.7771 43.3113 1.5503 43.4466 1.33659C43.6143 1.07169 43.8941 0.929149 44.1869 0.928204C44.4245 0.927437 44.6171 1.01851 44.7323 1.08518C44.8598 1.15893 44.9767 1.25252 45.08 1.34798C45.482 1.71965 45.9354 2.36245 46.3314 3.15159C47.1302 4.74334 47.8106 7.16238 47.267 9.73185C46.2974 14.3148 41.1565 16.8205 35.4888 16.2116C32.8094 15.9238 30.7157 15.4967 28.9511 15.1369C28.8848 15.1233 28.8188 15.1099 28.7534 15.0966C26.934 14.7259 25.5131 14.4491 24.1062 14.4491C22.6994 14.4491 21.2785 14.7259 19.4591 15.0965C19.3936 15.1099 19.3277 15.1233 19.2613 15.1369C17.4968 15.4967 15.4031 15.9237 12.7237 16.2115C7.05595 16.8204 1.91506 14.3148 0.945475 9.73179C0.401872 7.16232 1.08229 4.74328 1.88107 3.15153C2.27708 2.36239 2.73044 1.71959 3.13249 1.34792C3.23576 1.25246 3.35269 1.15887 3.48015 1.08512C3.59538 1.01845 3.78794 0.927375 4.02559 0.928143C4.31832 0.929088 4.59817 1.07163 4.76587 1.33653C4.90117 1.55023 4.92113 1.77704 4.92113 1.9205V1.99897L4.90497 2.07533L4.9047 2.07664L4.90314 2.08417L4.89633 2.11826C4.89025 2.14918 4.88127 2.19606 4.87036 2.25677C4.84852 2.37831 4.81904 2.55454 4.78947 2.76851C4.72997 3.19921 4.67194 3.77001 4.67194 4.34982C4.67194 4.94022 4.73262 5.48554 4.87762 5.89248C5.02068 6.29399 5.19968 6.4482 5.38037 6.50158C5.85705 6.6424 6.24792 6.73043 6.66087 6.73783C7.06702 6.74511 7.53352 6.67453 8.14339 6.44524C9.39619 5.97421 11.1867 4.86182 14.1729 2.50926C16.6681 0.543592 19.0319 0.347674 20.9258 0.864285C22.3136 1.24286 23.4134 1.9927 24.1166 2.62855C24.6853 2.14955 25.4089 1.71916 26.1697 1.38203C27.232 0.911266 28.4584 0.581543 29.5884 0.581543C30.5555 0.581543 31.5098 0.933469 32.2743 1.32745C33.0354 1.71963 33.6769 2.18917 34.0559 2.52222C37.0324 4.86596 38.8186 5.97513 40.0691 6.4453C40.6789 6.67459 41.1454 6.74517 41.5516 6.73789C41.9646 6.7305 42.3554 6.64246 42.8321 6.50164C43.0128 6.44826 43.1918 6.29405 43.3349 5.89254C43.4799 5.4856 43.5405 4.94028 43.5405 4.34989C43.5405 3.77007 43.4825 3.19927 43.423 2.76857C43.3934 2.5546 43.364 2.37837 43.3421 2.25683C43.3312 2.19612 43.3222 2.14924 43.3161 2.11832L43.3093 2.08424L43.3078 2.07671L43.3075 2.07541Z"></path>
        </g></defs>
                        <use xlink:href="#hair-mustache"></use>
                      </svg>