<svg xmlns:xlink="http://www.w3.org/1999/xlink" xmlns="http://www.w3.org/2000/svg" class="cat-button__icon" width="46" height="53" viewBox="0 0 46 53"><defs><g id="clothes">
          <path fill-rule="evenodd" clip-rule="evenodd" d="M20.4591 1.00096C21.3714 0.392728 22.4074 0.25 23.0001 0.25C23.3915 0.25 24.2999 0.415626 25.1288 1.01845C26.0049 1.65567 26.7501 2.75347 26.7501 4.5C26.7501 5.93681 26.1408 6.96763 25.3727 7.64868C24.8538 8.10875 24.267 8.40698 23.7501 8.58052V10.5986L29.2234 14.2475C29.5069 14.2411 29.7638 14.2235 30.0321 14.2051C30.2471 14.1903 30.4695 14.1751 30.7189 14.1647C31.3187 14.1397 31.9604 14.1545 32.682 14.3349C34.1259 14.6959 35.7427 15.6819 38.0305 17.9697C41.6958 21.6351 44.6359 26.266 45.6585 28.1409L45.9553 28.685L36.371 36.5779L35.7501 35.75V52.25H10.2501V35.75L9.6292 36.5779L0.0449219 28.685L0.341701 28.1409C1.36436 26.266 4.30442 21.6351 7.96979 17.9697C10.2576 15.6819 11.8744 14.6959 13.3182 14.3349C14.0399 14.1545 14.6816 14.1397 15.2813 14.1647C15.5307 14.1751 15.7531 14.1903 15.9681 14.2051C16.2365 14.2235 16.4933 14.2411 16.7769 14.2475L22.2501 10.5986V7.36465L22.8768 7.2602C23.2595 7.19643 23.8734 6.97335 24.3775 6.52632C24.8594 6.09904 25.2501 5.46319 25.2501 4.5C25.2501 3.24653 24.7453 2.59433 24.2465 2.23155C23.7004 1.83437 23.1087 1.75 23.0001 1.75C22.5928 1.75 21.8788 1.85727 21.2911 2.24904C20.7512 2.60903 20.2501 3.24913 20.2501 4.5H18.7501C18.7501 2.75087 19.4991 1.64097 20.4591 1.00096ZM23.0001 11.9014L17.8075 15.3631C18.0753 16.8418 18.8971 17.7724 19.8552 18.361C20.9348 19.0242 22.1921 19.25 23.0001 19.25C23.8081 19.25 25.0655 19.0242 26.145 18.361C27.1032 17.7724 27.9249 16.8418 28.1927 15.3631L23.0001 11.9014ZM29.6498 15.7313C29.2778 17.6226 28.1828 18.8695 26.9302 19.6391C25.5681 20.4758 24.0254 20.75 23.0001 20.75C21.9748 20.75 20.4321 20.4758 19.07 19.6391C17.8174 18.8695 16.7224 17.6226 16.3505 15.7313C16.1544 15.7213 15.9624 15.7086 15.7806 15.6965C15.5777 15.6831 15.3875 15.6704 15.2189 15.6634C14.6937 15.6415 14.2104 15.658 13.682 15.7901C12.6259 16.0542 11.2427 16.8181 9.03045 19.0303C5.80942 22.2514 3.14868 26.276 1.96229 28.3208L9.37104 34.4221L11.9001 31.05L13.1001 31.95L11.7501 33.75V50.75H34.2501V33.75L32.9001 31.95L34.1001 31.05L36.6292 34.4221L44.038 28.3208C42.8516 26.276 40.1908 22.2514 36.9698 19.0303C34.7576 16.8181 33.3744 16.0542 32.3182 15.7901C31.7899 15.658 31.3066 15.6415 30.7813 15.6634C30.6127 15.6704 30.4226 15.6831 30.2196 15.6965C30.0379 15.7086 29.8458 15.7213 29.6498 15.7313Z"></path>
        </g></defs>
                        <use xlink:href="#clothes"></use>
                      </svg>