<svg xmlns:xlink="http://www.w3.org/1999/xlink" xmlns="http://www.w3.org/2000/svg" class="cat-button__icon" width="26" height="36" viewBox="0 0 26 36"><defs><g id="face-ear">
          <path fill-rule="evenodd" clip-rule="evenodd" d="M6.3231 4.67184C3.79681 7.26291 2.35141 11.0217 1.72837 13.564L0.271484 13.2069C0.924759 10.5412 2.45741 6.48796 5.24909 3.62469C6.65467 2.18307 8.39688 1.02585 10.5186 0.522034C12.6448 0.0171823 15.0892 0.183515 17.8687 1.28706C20.8541 2.47232 22.8838 4.10502 24.157 6.01209C25.4297 7.91832 25.9089 10.0421 25.8894 12.1467C25.8506 16.3236 23.8504 20.5032 22.0361 23.1045C20.7143 24.9994 20.1253 26.4912 19.5747 27.8854C19.4132 28.2945 19.2549 28.6953 19.0825 29.0953C18.3033 30.9027 17.29 32.5015 14.6023 34.28C11.9918 36.0074 8.60886 35.8628 5.96924 34.4769C3.31223 33.0818 1.29165 30.3657 1.52793 26.8479L3.02455 26.9484C2.8354 29.7647 4.43103 31.9751 6.66654 33.1488C8.91944 34.3317 11.7054 34.3982 13.7746 33.029C16.1922 31.4293 17.0279 30.0723 17.705 28.5015C17.8549 28.1538 17.9994 27.7871 18.1521 27.3996C18.7086 25.9876 19.3738 24.2993 20.8058 22.2464C22.5258 19.7804 24.3545 15.8946 24.3894 12.1328C24.4067 10.2681 23.9839 8.45419 22.9095 6.84499C21.8357 5.23666 20.0733 3.77621 17.3152 2.6812C14.7768 1.67337 12.6477 1.55819 10.8652 1.98146C9.07825 2.40576 7.5765 3.38629 6.3231 4.67184ZM5.97624 14.1485C6.58342 11.972 7.36224 10.0859 8.49895 8.74143C9.73985 7.27377 11.44 6.41053 13.9968 6.60563C19.0422 6.99063 20.9738 11.5886 20.2067 14.6323L21.6612 14.9988C22.6142 11.2176 20.2457 5.5781 14.1109 5.10998C11.0776 4.87852 8.90765 5.9348 7.3535 7.77296C5.84079 9.56211 4.94764 12.0482 4.29642 14.6323L4.06121 15.5655H5.02367C5.77056 15.5655 6.34075 15.7518 6.70749 16.0429C7.05106 16.3155 7.28373 16.7312 7.28373 17.3749C7.28373 17.6371 7.09542 17.9392 6.5436 18.2426C6.01823 18.5315 5.35938 18.7026 4.91844 18.7651L5.12891 20.2503C5.69132 20.1706 6.53749 19.9578 7.26632 19.557C7.96868 19.1709 8.78373 18.4777 8.78373 17.3749C8.78373 16.3123 8.37139 15.4484 7.63993 14.8679C7.16753 14.493 6.59435 14.2613 5.97624 14.1485Z"></path>
        </g></defs>
                        <use xlink:href="#face-ear"></use>
                      </svg>