<svg xmlns:xlink="http://www.w3.org/1999/xlink" xmlns="http://www.w3.org/2000/svg" class="cat-button__icon" width="32" height="32" viewBox="0 0 32 32"><defs><g id="eyes-iris">
          <path fill-rule="evenodd" clip-rule="evenodd" d="M15.8082 30.1164C23.7104 30.1164 30.1164 23.7104 30.1164 15.8082C30.1164 7.906 23.7104 1.5 15.8082 1.5C7.906 1.5 1.5 7.906 1.5 15.8082C1.5 23.7104 7.906 30.1164 15.8082 30.1164ZM15.8082 31.6164C24.5388 31.6164 31.6164 24.5388 31.6164 15.8082C31.6164 7.07757 24.5388 0 15.8082 0C7.07757 0 0 7.07757 0 15.8082C0 24.5388 7.07757 31.6164 15.8082 31.6164Z"></path>
          <path d="M15.8089 22.4644C14.6992 24.6831 14.6992 26.9018 15.8089 29.1205C16.9178 26.9018 16.9178 24.6831 15.8089 22.4644Z"></path>
          <path d="M15.8089 2.49609C14.6992 4.71479 14.6992 6.93348 15.8089 9.15218C16.9178 6.93348 16.9178 4.71479 15.8089 2.49609Z"></path>
          <path d="M19.1363 21.5724C19.2846 24.0486 20.3939 25.9701 22.4643 27.3367C22.3153 24.8608 21.206 22.9394 19.1363 21.5724Z"></path>
          <path d="M9.15236 4.2795C9.30071 6.75577 10.41 8.67724 12.4804 10.0438C12.3314 7.56792 11.2221 5.64647 9.15236 4.2795Z"></path>
          <path d="M21.5727 19.1361C22.9393 21.2064 24.8607 22.3158 27.337 22.4641C25.9701 20.3944 24.0486 19.285 21.5727 19.1361Z"></path>
          <path d="M4.28009 9.15182C5.6467 11.2222 7.56813 12.3315 10.0444 12.4799C8.67745 10.4101 6.756 9.3008 4.28009 9.15182Z"></path>
          <path d="M22.4644 15.8079C24.6831 16.9175 26.9018 16.9176 29.1205 15.8079C26.9018 14.6989 24.6831 14.6989 22.4644 15.8079Z"></path>
          <path d="M2.49609 15.8078C4.71479 16.9174 6.93348 16.9175 9.15218 15.8078C6.93348 14.6988 4.71479 14.6988 2.49609 15.8078Z"></path>
          <path d="M21.5722 12.4799C24.0485 12.3315 25.9699 11.2222 27.3365 9.15185C24.8606 9.30083 22.9392 10.4102 21.5722 12.4799Z"></path>
          <path d="M4.2795 22.4639C6.75577 22.3155 8.67724 21.2062 10.0438 19.1358C7.56792 19.2848 5.64647 20.3942 4.2795 22.4639Z"></path>
          <path d="M19.1353 10.0438C21.2057 8.67717 22.3151 6.75575 22.4634 4.27945C20.3937 5.64643 19.2843 7.56787 19.1353 10.0438Z"></path>
          <path d="M9.15208 27.3364C11.2224 25.9698 12.3318 24.0484 12.4801 21.5721C10.4104 22.939 9.30106 24.8605 9.15208 27.3364Z"></path>
          <path d="M21.627 15.5614C21.173 15.7212 20.6847 15.8081 20.1761 15.8081C17.7637 15.8081 15.808 13.8525 15.808 11.4401C15.808 10.9315 15.895 10.4432 16.0547 9.9893C15.9729 9.98589 15.8907 9.98417 15.8081 9.98417C12.5915 9.98417 9.98398 12.5917 9.98398 15.8082C9.98398 19.0248 12.5915 21.6323 15.8081 21.6323C19.0246 21.6323 21.6321 19.0248 21.6321 15.8082C21.6321 15.7256 21.6304 15.6433 21.627 15.5614Z"></path>
        </g></defs>
                        <use xlink:href="#eyes-iris"></use>
                      </svg>