<svg xmlns:xlink="http://www.w3.org/1999/xlink" xmlns="http://www.w3.org/2000/svg" class="cat-button__icon" width="50" height="26" viewBox="0 0 50 26"><defs><g id="eyes">
          <path fill-rule="evenodd" clip-rule="evenodd" d="M9.8799 4.85503C14.1612 2.31418 19.4197 0.25 25.0002 0.25C30.5807 0.25 35.8391 2.31418 40.1204 4.85503C44.4032 7.39672 47.764 10.4483 49.5646 12.5061L49.9427 12.9383L49.6242 13.416C46.8581 17.5651 38.1149 25.75 25.0002 25.75C11.8854 25.75 3.14219 17.5651 0.37613 13.416L0.0576172 12.9383L0.435735 12.5061C2.2363 10.4483 5.59715 7.39672 9.8799 4.85503ZM13.5296 4.59717C12.5308 5.07684 11.5672 5.59796 10.6454 6.14497C6.80172 8.42611 3.73561 11.1292 1.95579 13.0588C4.14101 16.0587 9.30665 20.89 16.8488 23.0908C16.6792 22.9815 16.5109 22.8683 16.3442 22.7513C13.4039 20.6869 10.9627 17.4034 10.7509 12.5326C10.5991 9.04268 11.7581 6.46089 13.5296 4.59717ZM33.1515 23.0908C33.3212 22.9815 33.4895 22.8683 33.6561 22.7513C36.5965 20.6869 39.0377 17.4034 39.2495 12.5326C39.4012 9.04268 38.2422 6.46089 36.4707 4.59717C37.4695 5.07684 38.4332 5.59796 39.3549 6.14497C43.1986 8.42611 46.2647 11.1292 48.0445 13.0588C45.8593 16.0587 40.6937 20.89 33.1515 23.0908ZM25.0002 24.2494C27.0392 24.1647 30.154 23.3774 32.7942 21.5237C35.4205 19.6797 37.5626 16.7966 37.7509 12.4674C37.9371 8.18366 35.9077 5.54779 33.261 3.94112C30.5696 2.30734 27.2407 1.75 25.0002 1.75C22.7596 1.75 19.4308 2.30734 16.7394 3.94112C14.0926 5.54779 12.0632 8.18366 12.2495 12.4674C12.4377 16.7966 14.5798 19.6797 17.2061 21.5237C19.8463 23.3774 22.9612 24.1647 25.0002 24.2494Z"></path>
          <path d="M29.9958 12.2882C29.606 12.4254 29.1868 12.5 28.7502 12.5C26.6791 12.5 25.0002 10.8211 25.0002 8.75C25.0002 8.31335 25.0748 7.89413 25.212 7.50441C25.1418 7.50148 25.0711 7.5 25.0002 7.5C22.2387 7.5 20.0002 9.73858 20.0002 12.5C20.0002 15.2614 22.2387 17.5 25.0002 17.5C27.7616 17.5 30.0002 15.2614 30.0002 12.5C30.0002 12.429 29.9987 12.3584 29.9958 12.2882Z"></path>
        </g></defs>
                        <use xlink:href="#eyes"></use>
                      </svg>