<svg xmlns:xlink="http://www.w3.org/1999/xlink" xmlns="http://www.w3.org/2000/svg" class="cat-button__icon" width="44" height="19" viewBox="0 0 44 19"><defs><g id="eyes-eyebrows">
          <path fill-rule="evenodd" clip-rule="evenodd" d="M34.1563 4.99184C38.2448 8.44555 41.2056 13.2731 43.6538 17.6328L42.4393 18.4984C33.9682 8.97065 26.6886 6.54927 20.9806 7.34393C15.2298 8.14455 10.8082 12.2424 8.15604 16.3062C7.25126 17.6926 5.61467 18.9047 3.72159 18.5305C2.28821 18.2472 1.26525 17.6799 0.706742 16.8144C0.142 15.9392 0.162009 14.9316 0.437696 14.0185C0.878785 12.5574 2.04088 11.0827 3.2365 10.0336C3.00382 9.76036 2.8612 9.42846 2.87626 9.02893C2.90216 8.34161 3.40968 7.80681 3.837 7.45485C4.53687 6.87841 5.56008 6.36293 6.46708 5.98638C6.41947 5.7634 6.41591 5.52004 6.47368 5.26093C6.61974 4.60586 7.12274 4.02339 7.88528 3.50892C9.41041 2.47995 12.4043 1.43226 17.8029 0.558268C24.7703 -0.569718 30.0325 1.50819 34.1563 4.99184ZM33.1884 6.13771C29.3609 2.90447 24.5311 0.988539 18.0426 2.03899C12.6763 2.90775 9.96163 3.91752 8.72421 4.75238C8.10547 5.16983 7.96371 5.47086 7.93774 5.58735C7.92188 5.65847 7.93063 5.73276 8.04142 5.83799L8.92656 6.67872L7.77655 7.08831C6.77671 7.44442 5.5021 8.0267 4.79063 8.61269C4.49036 8.86 4.4058 9.0142 4.3831 9.06623C4.4179 9.11203 4.51888 9.20701 4.78846 9.33502L5.94169 9.88268L4.90187 10.6234C3.62433 11.5334 2.28396 13.093 1.87368 14.452C1.67464 15.1113 1.72178 15.6209 1.96711 16.0011C2.21868 16.3909 2.78874 16.8171 4.01241 17.059C5.05889 17.2658 6.16704 16.6094 6.89989 15.4864C9.68064 11.2255 14.4296 6.74148 20.7738 5.85826C26.0449 5.12442 32.2375 6.89843 39.1081 13.0155C37.4056 10.4725 35.4744 8.06885 33.1884 6.13771ZM4.36677 9.03571C4.36774 9.03555 4.37078 9.04064 4.37296 9.05141C4.36689 9.04125 4.3658 9.03586 4.36677 9.03571Z"></path>
        </g></defs>
                        <use xlink:href="#eyes-eyebrows"></use>
                      </svg>