<svg xmlns:xlink="http://www.w3.org/1999/xlink" xmlns="http://www.w3.org/2000/svg" class="cat-button__icon" width="42" height="41" viewBox="0 0 42 41"><defs><g id="face">
          <path fill-rule="evenodd" clip-rule="evenodd" d="M20.9581 0.256697C21.0971 0.252241 21.2358 0.25 21.374 0.25V0.27653C24.6523 0.483723 28.114 1.89482 30.8664 4.16963C33.8596 6.64345 36.0712 10.189 36.2481 14.4087C36.4214 18.5405 34.7919 24.8747 32.0517 30.1638C30.6769 32.8173 28.999 35.255 27.0827 37.0393C25.39 38.6155 23.4666 39.721 21.374 39.9561V40.0028C21.2346 40.0028 21.096 39.9988 20.9581 39.9911C20.8202 39.9988 20.6815 40.0028 20.5422 40.0028V39.9561C18.4496 39.721 16.5262 38.6155 14.8335 37.0393C12.9172 35.255 11.2393 32.8173 9.86454 30.1638C7.12428 24.8747 5.49483 18.5405 5.66808 14.4087C5.84502 10.189 8.05659 6.64345 11.0498 4.16963C13.8022 1.89482 17.2639 0.483723 20.5422 0.27653V0.25C20.6804 0.25 20.8191 0.252241 20.9581 0.256697ZM20.9581 1.75757C17.9367 1.86692 14.6313 3.15559 12.0054 5.32585C9.26522 7.59054 7.32219 10.765 7.16677 14.4716C7.00765 18.266 8.53569 24.3382 11.1964 29.4738C12.5221 32.0327 14.1055 34.3119 15.8557 35.9415C17.4798 37.4537 19.1984 38.3634 20.9581 38.488C22.7178 38.3634 24.4364 37.4537 26.0605 35.9415C27.8106 34.3119 29.3941 32.0327 30.7198 29.4738C33.3805 24.3382 34.9085 18.266 34.7494 14.4716C34.594 10.765 32.651 7.59054 29.9108 5.32585C27.2849 3.15559 23.9795 1.86692 20.9581 1.75757ZM3.67701 32.2914C2.13194 29.4325 0.932947 26.657 0.297852 24.9634L1.70235 24.4367C2.31462 26.0695 3.48564 28.7824 4.99663 31.5783C6.10968 33.6378 7.39185 35.7133 8.75418 37.4307L8.56964 35.5853L10.0622 35.436L10.5895 40.7089L5.35829 39.1395L5.78931 37.7028L7.45231 38.2017C6.0563 36.4145 4.77247 34.3184 3.67701 32.2914ZM36.5037 31.5783C38.0147 28.7824 39.1857 26.0695 39.798 24.4367L41.2025 24.9634C40.5674 26.657 39.3684 29.4325 37.8233 32.2914C36.7279 34.3184 35.444 36.4145 34.048 38.2017L35.711 37.7028L36.142 39.1395L30.9108 40.7089L31.4381 35.436L32.9307 35.5853L32.7462 37.4307C34.1085 35.7133 35.3907 33.6378 36.5037 31.5783Z"></path>
        </g></defs>
                        <use xlink:href="#face"></use>
                      </svg>