<svg xmlns:xlink="http://www.w3.org/1999/xlink" xmlns="http://www.w3.org/2000/svg" class="cat-button__icon" width="40" height="32" viewBox="0 0 40 32"><defs><g id="eyes-glasses">
          <path fill-rule="evenodd" clip-rule="evenodd" d="M1.50029 17.3398C1.49558 13.4952 1.56778 10.0558 2.18227 7.35206C2.59603 5.53158 3.23744 4.14311 4.18829 3.2109C5.11841 2.29902 6.4203 1.75001 8.32409 1.75L8.32409 0.25C6.104 0.250011 4.39889 0.903808 3.13819 2.13979C1.89821 3.35545 1.16498 5.05989 0.719576 7.01962C-0.0360889 10.3445 -0.0155263 14.6871 0.00620272 19.2761C0.00987383 20.0514 0.0135782 20.8337 0.0135782 21.6194H0.025509C0.00830843 21.8462 -0.000448624 22.0755 -0.000448624 22.3067C-0.000448624 27.2575 4.01293 31.2708 8.96369 31.2708C13.8633 31.2708 17.8448 27.3399 17.9266 22.4598C18.1623 21.9256 18.9107 21.5103 19.9318 21.5103C20.9043 21.5103 21.6294 21.887 21.8999 22.3844C21.9416 27.2994 25.9389 31.2708 30.8637 31.2708C35.8145 31.2708 39.8278 27.2575 39.8278 22.3067C39.8278 22.0112 39.8135 21.7191 39.7856 21.4309C39.7861 20.7086 39.7895 19.9894 39.7929 19.2761C39.8146 14.6871 39.8352 10.3445 39.0795 7.01962C38.6341 5.05989 37.9009 3.35545 36.6609 2.13979C35.4002 0.903808 33.6951 0.250011 31.475 0.25L31.475 1.75C33.3788 1.75001 34.6807 2.29902 35.6108 3.2109C36.5617 4.14311 37.2031 5.53158 37.6168 7.35206C38.2291 10.0459 38.303 13.4701 38.2989 17.2977C36.6882 14.9116 33.9592 13.3426 30.8637 13.3426C26.5194 13.3426 22.8969 16.4329 22.0746 20.5351C21.4165 20.1684 20.6324 20.0103 19.9318 20.0103C19.2196 20.0103 18.4211 20.1737 17.7565 20.5534C16.9412 16.4421 13.3144 13.3426 8.96369 13.3426C5.85005 13.3426 3.10718 14.93 1.50029 17.3398ZM38.2855 21.5075C37.8867 17.761 34.716 14.8426 30.8637 14.8426C26.7414 14.8426 23.3996 18.1844 23.3996 22.3067C23.3996 26.429 26.7414 29.7708 30.8637 29.7708C34.986 29.7708 38.3278 26.429 38.3278 22.3067C38.3278 22.075 38.3173 21.8457 38.2966 21.6194H38.2855C38.2855 21.5821 38.2855 21.5448 38.2855 21.5075ZM8.96369 14.8426C4.84136 14.8426 1.49955 18.1844 1.49955 22.3067C1.49955 26.429 4.84136 29.7708 8.96369 29.7708C13.086 29.7708 16.4278 26.429 16.4278 22.3067C16.4278 18.1844 13.086 14.8426 8.96369 14.8426Z"></path>
        </g></defs>
                        <use xlink:href="#eyes-glasses"></use>
                      </svg>