<svg xmlns:xlink="http://www.w3.org/1999/xlink" xmlns="http://www.w3.org/2000/svg" class="cat-button__icon" width="42" height="46" viewBox="0 0 42 46"><defs><g id="hair">
          <path fill-rule="evenodd" clip-rule="evenodd" d="M25.7132 1.8402C23.63 1.50239 22.0818 2.17887 21.2204 2.82486L20.7556 3.17348L20.3019 2.81052C19.2394 1.96051 17.7193 1.49998 15.7304 1.8978C13.7216 2.29958 11.2164 3.5841 8.27791 6.27773C2.52404 11.5521 0.0605922 21.2343 2.98631 30.499C5.43486 38.2528 4.04959 43.7185 2.91424 45.6107L1.628 44.839C2.49265 43.3979 3.90738 38.3969 1.55593 30.9507C-1.51835 21.2155 1.0182 10.8976 7.26433 5.172C10.3258 2.36563 13.0703 0.900152 15.4362 0.426931C17.5799 -0.00184725 19.3957 0.390239 20.7849 1.30853C21.9561 0.584359 23.7289 -0.00116263 25.9533 0.359535C28.4913 0.771076 31.5125 2.39684 34.8376 6.23368C38.1551 10.0618 39.9778 13.6792 40.6948 17.4601C41.4098 21.2304 41.0123 25.0966 40.0005 29.3966C39.8164 30.1792 39.6376 30.924 39.4672 31.6337C38.701 34.8252 38.1047 37.3094 37.9559 39.3421C37.779 41.7604 38.2502 43.3626 39.7585 44.6554L38.7823 45.7943C36.7906 44.0871 36.2619 41.9394 36.4599 39.2326C36.6185 37.0661 37.2524 34.4282 38.0207 31.2314C38.1887 30.5323 38.3631 29.8065 38.5404 29.0531C39.5286 24.8532 39.881 21.2193 39.2211 17.7396C38.5632 14.2705 36.8861 10.8879 33.704 7.21605C30.5295 3.55289 27.8005 2.17865 25.7132 1.8402ZM19.4651 8.32798C19.8762 7.8285 20.0204 7.45999 20.0204 7.22493L21.5204 7.2248C21.5204 7.25142 21.5204 7.27837 21.5204 7.30565C21.52 8.9167 21.5194 11.6673 23.3032 13.5451C23.2966 13.3412 23.2992 13.1572 23.3093 12.9918C23.3264 12.7113 23.3656 12.4709 23.4243 12.2711C23.4765 12.0939 23.5668 11.8678 23.7401 11.6945L24.0898 11.3448L24.549 11.5285C25.8729 12.0581 28.4325 13.4706 30.666 15.1935C31.7853 16.0569 32.8518 17.0204 33.6456 18.0148C34.2487 18.7702 34.741 19.6014 34.9334 20.4614C35.723 20.5373 36.3725 20.9232 36.8238 21.5248C37.3844 22.2721 37.5902 23.2807 37.5191 24.2782C37.3819 26.2018 36.1898 28.3981 33.8019 29.3302C33.2674 31.1552 32.5569 32.9479 31.6703 34.5825C29.4419 38.6905 25.9908 41.9749 21.2704 41.9749C16.5605 41.9749 12.8732 38.5767 10.4134 34.6209C9.37953 32.9582 8.53593 31.1567 7.90461 29.3918C5.40681 28.4981 4.16288 26.2456 4.02235 24.2783C3.95109 23.2808 4.15681 22.2722 4.71739 21.5248C5.17789 20.9109 5.84482 20.5215 6.65656 20.4571C6.83306 18.6835 7.28188 17.4057 8.21935 16.3019C8.84719 15.5627 9.66388 14.9376 10.6671 14.2901C11.4498 13.7849 12.381 13.2448 13.4615 12.6181C13.7603 12.4448 14.0706 12.2648 14.3923 12.0772C14.3923 12.0771 14.3922 12.0772 14.3923 12.0772L14.3933 12.0766C15.1465 11.6372 16.6064 10.7845 17.8748 9.80292C18.5103 9.31113 19.0705 8.80747 19.4651 8.32798ZM6.56943 21.9844C6.28525 22.0533 6.07595 22.2134 5.91735 22.4249C5.63411 22.8025 5.46478 23.4189 5.51854 24.1714C5.59937 25.303 6.16954 26.5514 7.26855 27.3702C6.80449 25.6588 6.56144 24.0518 6.56144 22.7249C6.56144 22.4699 6.56399 22.2232 6.56943 21.9844ZM34.3135 27.3398C35.3861 26.5207 35.9432 25.2891 36.0229 24.1715C36.0766 23.419 35.9072 22.8026 35.6239 22.4249C35.472 22.2225 35.2737 22.0671 35.0078 21.9938C34.9533 23.6774 34.7219 25.5019 34.3135 27.3398ZM20.1391 9.8148C19.7326 10.2262 19.2673 10.622 18.7928 10.9892C17.4419 12.0347 15.9083 12.9293 15.1576 13.3673L15.1485 13.3726C14.8148 13.5673 14.4966 13.7518 14.1934 13.9278C13.1197 14.5506 12.2304 15.0665 11.4805 15.5504C10.5226 16.1686 9.84953 16.6997 9.36261 17.273C8.42873 18.3725 8.06144 19.7643 8.06144 22.7249C8.06144 25.5587 9.33647 30.0483 11.6873 33.8288C14.0466 37.6231 17.3388 40.4749 21.2704 40.4749C25.1916 40.4749 28.2405 37.7592 30.3518 33.8673C32.4565 29.9872 33.5204 25.112 33.5204 21.2249C33.5204 20.604 33.1776 19.8328 32.4734 18.9506C31.7828 18.0855 30.8181 17.2053 29.7498 16.3812C28.0202 15.0469 26.0957 13.9178 24.7998 13.285C24.7961 13.6857 24.8441 14.2689 25.0059 15.0778L25.3239 16.6681L23.9062 15.8805C21.244 14.4015 20.4031 11.868 20.1391 9.8148Z"></path>
        </g></defs>
                        <use xlink:href="#hair"></use>
                      </svg>