<svg id="svga-svgcanvas-elements-clothes-2-3" xmlns="http://www.w3.org/2000/svg" version="1.1" xmlns:xlink="http://www.w3.org/1999/xlink" class="avatar-elements__svg" viewBox="0 0 200 200" preserveAspectRatio="xMinYMin meet" width="45"  height="45" ><defs id="SvgjsDefs1817"></defs><g id="SvgjsG1818" transform="matrix(0.9,0,0,0.9,9.84699993133545,-3.021181488037115)"><path id="SvgjsPath1819" d="M51.4 218s1-21.2-3-40.2l14.1-6.3s3.3 21.9 15.1 30.3 43.4 7.6 50.9-1.3c7.4-8.9 11.1-27.9 11.1-27.9l15.4 6.3s-2.1 12-2.8 22.9-.2 16.2-.2 16.2H51.4z" data-colored="false" data-fillType="#ffffff" data-strokeType="none" fill="#FFFFFF" stroke-width="none" opacity="1"></path><path id="SvgjsPath1820" d="m155.4 177.9-15.4-6.3c-.3-.1-.6-.1-.9.1-.3.1-.4.4-.5.7 0 .2-3.7 18.8-10.9 27.4-7.2 8.6-38.2 9.3-49.5 1.1-11.3-8.1-14.6-29.4-14.7-29.7 0-.3-.2-.6-.5-.7-.3-.1-.6-.2-.9 0L48 176.8c-.4.2-.7.7-.6 1.1 3.9 18.6 3 39.8 3 40 0 .3.1.5.3.7.2.2.5.3.7.3h6.2c.1.1.2.1.3 0H152c.3 0 .6-.1.7-.3s.3-.5.3-.8c0-.1-.5-5.4.2-16.1.6-10.7 2.8-22.6 2.8-22.8.1-.3-.2-.8-.6-1zm-102.6-1c-1 1.3-2 2.7-2.7 4.1-.2-.9-.3-1.8-.5-2.7l3.2-1.4zm98.4 24.8c-.5 8.2-.4 13.2-.2 15.3H67c.9-1 1.9-2 2.8-3.1.1-.2-.1-.4-.2-.2-1.1 1.1-2.1 2.2-3.2 3.3h-6.5c1-1.1 2-2.3 3-3.5.1-.1-.1-.3-.2-.2-1.2 1.1-2.3 2.4-3.3 3.7h-5.5c2.2-2.6 4.5-5.2 6.5-7.9.1-.2-.2-.4-.3-.2-2.4 2.6-4.7 5.4-6.9 8.1h-.6c.1-2.1.2-7.3-.1-13.9 3-3.9 6.1-7.7 8.9-11.7.1-.1-.1-.3-.2-.2-3 3.6-5.9 7.5-8.7 11.3-.1-1.6-.2-3.3-.3-5.1 3.6-4.7 7.1-9.6 10-14.8.1-.1-.1-.2-.2-.1-3.2 4.8-6.4 9.6-9.8 14.3-.1-1.3-.2-2.7-.3-4 2.6-4.3 5.4-8.4 8.5-12.4.1-.2-.1-.4-.3-.2-3.2 3.6-5.9 7.7-8.2 11.9l-.6-5.1c.1 0 .2.1.2 0 .2-.2.4-.5.6-.7.1-.1 0-.3-.2-.2 1.3-.9 2.5-3.7 3.5-5.2 1.4-2 2.8-3.9 4.2-5.8.2-.2-.2-.4-.3-.2-2.9 3.8-5.7 7.6-8.2 11.7-.2-1.4-.4-2.9-.7-4.4 1.2-2 2.3-3.9 3.7-5.8l7.8-3.5c.9 4.9 4.8 22.2 15.2 29.7 12.2 8.8 44.4 7.9 52.2-1.5 6.5-7.8 10.1-22.8 11.1-27.1l13.6 5.6c-.6 2.8-2.3 12.9-2.8 22.1zM58 202.8c-1.9 2-3.6 4.2-5.4 6.4-.2.2.1.5.3.3 1.8-2.1 3.7-4.2 5.3-6.5.1-.2-.1-.3-.2-.2z" data-colored="false" data-fillType="#000000" data-strokeType="none" fill="#000000" stroke-width="none" opacity="1"></path></g></svg>