<svg xmlns:xlink="http://www.w3.org/1999/xlink" xmlns="http://www.w3.org/2000/svg" id="logoEnd" class="logo__image" width="116" height="68" viewBox="0 0 116 68"><defs><g id="logo-mobile">
      <path d="M21.6119 30.4175C21.2284 30.6254 20.833 30.7987 20.4256 30.9373C20.0182 31.0759 19.4909 31.1914 18.8438 31.2838C18.4843 28.9044 18.1248 26.8138 17.7654 25.0119C17.4059 23.21 17.0344 21.5583 16.6509 20.0568C14.9494 20.0337 13.2837 20.0799 11.654 20.1954C10.0243 20.2878 8.5025 20.4379 7.0885 20.6458C6.58522 21.8471 6.02201 23.083 5.3989 24.3535C4.79975 25.6241 4.1287 26.9639 3.38575 28.3731C2.9304 28.2807 2.49901 28.1305 2.09159 27.9226C1.68417 27.7378 1.28873 27.4721 0.905273 27.1256C3.03825 23.4988 4.77578 19.9528 6.11788 16.4877C7.48394 12.9994 8.80207 8.57562 10.0723 3.21622C10.7194 3.23932 11.2586 3.27397 11.69 3.32017C12.1214 3.36637 12.5408 3.43568 12.9482 3.52808C15.2969 7.91725 17.1063 12.1101 18.3765 16.1065C19.6707 20.103 20.7491 24.8733 21.6119 30.4175ZM11.5821 6.47345C11.0069 8.89904 10.4198 11.0936 9.82063 13.0572C9.24544 14.9977 8.61034 16.8457 7.91533 18.6014C9.0657 18.4397 10.3239 18.3126 11.69 18.2202C13.056 18.1047 14.5299 18.0239 16.1117 17.9777C15.5126 15.9448 14.8535 14.0043 14.1345 12.1563C13.4155 10.3082 12.5647 8.41392 11.5821 6.47345Z" fill="#181818"></path>
      <path d="M40.0507 1.76086C39.4275 7.23577 38.5048 12.0639 37.2826 16.2451C36.0603 20.4033 34.1191 25.2083 31.4588 30.6601C31.1233 30.7525 30.7758 30.8218 30.4163 30.868C30.0568 30.9142 29.6494 30.9373 29.1941 30.9373C27.4685 27.0794 26.0186 23.1292 24.8442 19.0865C23.6699 15.0208 22.7592 10.8049 22.1121 6.43879C22.5914 6.23088 23.0588 6.06918 23.5141 5.95367C23.9695 5.81507 24.4608 5.72266 24.988 5.67646C25.4673 9.51121 26.1743 13.2767 27.109 16.9728C28.0676 20.6689 29.254 24.2496 30.668 27.7147C32.6332 23.1407 34.1191 18.8786 35.1256 14.9284C36.1322 10.955 36.8752 6.40414 37.3545 1.27574C37.8338 1.27574 38.2772 1.32194 38.6846 1.41435C39.116 1.48365 39.5713 1.59916 40.0507 1.76086Z" fill="#181818"></path>
      <path d="M59.3162 30.4175C58.9328 30.6254 58.5373 30.7987 58.1299 30.9373C57.7225 31.0759 57.1952 31.1914 56.5482 31.2838C56.1887 28.9044 55.8292 26.8138 55.4697 25.0119C55.1102 23.21 54.7387 21.5583 54.3553 20.0568C52.6537 20.0337 50.988 20.0799 49.3584 20.1954C47.7287 20.2878 46.2068 20.4379 44.7928 20.6458C44.2895 21.8471 43.7263 23.083 43.1032 24.3535C42.5041 25.6241 41.833 26.9639 41.0901 28.3731C40.6347 28.2807 40.2033 28.1305 39.7959 27.9226C39.3885 27.7378 38.9931 27.4721 38.6096 27.1256C40.7426 23.4988 42.4801 19.9528 43.8222 16.4877C45.1883 12.9994 46.5064 8.57562 47.7766 3.21622C48.4237 3.23932 48.9629 3.27397 49.3943 3.32017C49.8257 3.36637 50.2451 3.43568 50.6525 3.52808C53.0012 7.91725 54.8106 12.1101 56.0808 16.1065C57.375 20.103 58.4535 24.8733 59.3162 30.4175ZM49.2865 6.47345C48.7113 8.89904 48.1241 11.0936 47.525 13.0572C46.9498 14.9977 46.3147 16.8457 45.6197 18.6014C46.77 18.4397 48.0282 18.3126 49.3943 18.2202C50.7604 18.1047 52.2343 18.0239 53.816 17.9777C53.2169 15.9448 52.5578 14.0043 51.8388 12.1563C51.1199 10.3082 50.2691 8.41392 49.2865 6.47345Z" fill="#181818"></path>
      <path d="M68.7391 26.4673C68.4275 26.5597 68.0321 26.6405 67.5528 26.7098C67.0734 26.756 66.5821 26.7907 66.0789 26.8138C66.1987 23.0945 66.1507 19.1212 65.9351 14.8937C65.7194 10.6663 65.3479 6.7622 64.8206 3.18157C63.5984 3.29707 62.3282 3.44723 61.01 3.63203C59.7159 3.79374 58.3139 3.97855 56.804 4.18645C56.7081 3.79374 56.6362 3.40102 56.5883 3.00831C56.5404 2.61559 56.5284 2.25753 56.5524 1.93412C60.1473 1.3566 63.3347 0.940781 66.1148 0.68667C68.9188 0.432561 72.1063 0.282407 75.6772 0.236206C75.7491 0.397912 75.7971 0.582719 75.821 0.790627C75.869 0.998535 75.9049 1.22954 75.9289 1.48365C75.9289 1.57606 75.9289 1.68001 75.9289 1.79551C75.9289 1.91102 75.9049 2.18823 75.857 2.62715C74.419 2.65025 73.0649 2.6849 71.7947 2.7311C70.5245 2.7773 69.2663 2.8466 68.0201 2.93901C68.3317 5.94212 68.5593 8.77198 68.7031 11.4286C68.8469 14.0621 68.9188 16.8111 68.9188 19.6756C68.9188 20.6689 68.9068 21.72 68.8829 22.8289C68.8589 23.9377 68.811 25.1505 68.7391 26.4673Z" fill="#181818"></path>
      <path d="M94.9142 30.4175C94.5307 30.6254 94.1353 30.7987 93.7278 30.9373C93.3204 31.0759 92.7932 31.1914 92.1461 31.2838C91.7866 28.9044 91.4271 26.8138 91.0676 25.0119C90.7081 23.21 90.3367 21.5583 89.9532 20.0568C88.2516 20.0337 86.586 20.0799 84.9563 20.1954C83.3266 20.2878 81.8048 20.4379 80.3908 20.6458C79.8875 21.8471 79.3243 23.083 78.7012 24.3535C78.102 25.6241 77.431 26.9639 76.688 28.3731C76.2327 28.2807 75.8013 28.1305 75.3939 27.9226C74.9864 27.7378 74.591 27.4721 74.2075 27.1256C76.3405 23.4988 78.078 19.9528 79.4201 16.4877C80.7862 12.9994 82.1043 8.57562 83.3745 3.21622C84.0216 3.23932 84.5609 3.27397 84.9922 3.32017C85.4236 3.36637 85.843 3.43568 86.2505 3.52808C88.5991 7.91725 90.4086 12.1101 91.6787 16.1065C92.9729 20.103 94.0514 24.8733 94.9142 30.4175ZM84.8844 6.47345C84.3092 8.89904 83.722 11.0936 83.1229 13.0572C82.5477 14.9977 81.9126 16.8457 81.2176 18.6014C82.368 18.4397 83.6262 18.3126 84.9922 18.2202C86.3583 18.1047 87.8322 18.0239 89.414 17.9777C88.8148 15.9448 88.1558 14.0043 87.4368 12.1563C86.7178 10.3082 85.867 8.41392 84.8844 6.47345Z" fill="#181818"></path>
      <path d="M115.126 27.4375C114.886 27.6454 114.515 27.8649 114.012 28.0959C113.508 28.35 113.041 28.5232 112.61 28.6156C111.243 25.6587 110.057 23.314 109.051 21.5814C108.068 19.8489 106.977 18.1971 105.779 16.6263C105.204 16.8804 104.557 17.123 103.838 17.354C103.143 17.5619 102.388 17.7698 101.573 17.9777C101.501 19.8258 101.417 21.5583 101.322 23.1754C101.226 24.7924 101.106 26.3402 100.962 27.8187C100.603 27.8649 100.183 27.8649 99.7038 27.8187C99.2484 27.7956 98.877 27.7494 98.5894 27.6801C98.7092 25.8551 98.7811 24.3882 98.8051 23.2793C98.853 22.1474 98.877 20.9692 98.877 19.7449C98.877 16.0257 98.8171 13.0803 98.6972 10.9088C98.5774 8.73733 98.3497 6.19623 98.0142 3.28552C99.0687 2.5694 100.267 2.00342 101.609 1.58761C102.975 1.17179 104.317 0.963881 105.635 0.963881C108.008 0.963881 109.877 1.56451 111.243 2.76575C112.633 3.967 113.328 5.57251 113.328 7.58228C113.328 9.29175 112.885 10.8164 111.998 12.1563C111.112 13.473 109.77 14.6281 107.972 15.6214C109.122 16.9381 110.297 18.5899 111.495 20.5765C112.693 22.5401 113.904 24.8271 115.126 27.4375ZM101.142 3.9439C101.31 5.99988 101.429 7.80174 101.501 9.3495C101.573 10.8973 101.609 12.445 101.609 13.9928C101.609 14.3393 101.609 14.6858 101.609 15.0323C101.609 15.3557 101.609 15.6907 101.609 16.0372C104.605 15.3211 106.822 14.3162 108.26 13.0225C109.698 11.7289 110.417 10.0772 110.417 8.06741C110.417 6.42724 109.973 5.16824 109.086 4.29041C108.224 3.38948 106.977 2.93901 105.348 2.93901C104.629 2.93901 103.91 3.03141 103.191 3.21622C102.496 3.37793 101.813 3.62048 101.142 3.9439Z" fill="#181818"></path>
      <path d="M28.163 65.5193C27.7317 65.681 27.2883 65.7965 26.8329 65.8658C26.3776 65.9351 25.8743 65.9698 25.3231 65.9698C25.5627 62.2274 25.7185 58.4966 25.7904 54.7774C25.8863 51.0581 25.9102 46.8307 25.8623 42.095C24.3764 44.4513 23.0583 46.9 21.9079 49.4411C20.7575 51.9822 19.6911 54.7774 18.7085 57.8267C18.4448 57.9191 18.1453 57.9884 17.8097 58.0346C17.4742 58.0577 17.1387 58.0462 16.8032 58C15.8445 55.02 14.778 52.2825 13.6037 49.7876C12.4533 47.2927 11.1112 44.8671 9.57741 42.5108C9.55344 42.9728 9.52948 43.4464 9.50551 43.9315C9.50551 44.4166 9.50551 45.2598 9.50551 46.4611C9.50551 49.0484 9.64931 51.8205 9.9369 54.7774C10.2245 57.7112 10.6559 60.7374 11.2311 63.856C10.8716 63.9484 10.4402 64.0177 9.9369 64.0639C9.45758 64.1332 9.01421 64.1679 8.60679 64.1679C7.98367 60.518 7.52832 56.3945 7.24072 51.7974C6.9771 47.2003 6.91718 42.9035 7.06098 38.9071C7.58823 38.6299 8.07953 38.4104 8.53489 38.2487C9.01421 38.0639 9.45758 37.9368 9.865 37.8675C11.5666 40.2238 13.1004 42.788 14.4665 45.5601C15.8565 48.3091 16.9949 51.0928 17.8816 53.9111C18.7444 51.3007 19.7989 48.6903 21.0451 46.0799C22.3153 43.4695 23.8372 40.7321 25.6107 37.8675C26.114 37.9368 26.5813 38.0408 27.0127 38.1794C27.4441 38.318 27.8395 38.4682 28.199 38.6299C28.3668 41.8178 28.4387 45.7103 28.4147 50.3074C28.4147 54.8813 28.3308 59.952 28.163 65.5193Z" fill="#181818"></path>
      <path d="M52.3652 66.8014C51.9817 67.0093 51.5863 67.1826 51.1788 67.3212C50.7714 67.4598 50.2442 67.5753 49.5971 67.6677C49.2376 65.2883 48.8781 63.1977 48.5186 61.3958C48.1591 59.5939 47.7876 57.9422 47.4042 56.4407C45.7026 56.4176 44.037 56.4638 42.4073 56.5793C40.7776 56.6717 39.2557 56.8218 37.8418 57.0297C37.3385 58.231 36.7753 59.4669 36.1522 60.7374C35.553 62.008 34.882 63.3478 34.139 64.757C33.6837 64.6646 33.2523 64.5144 32.8448 64.3065C32.4374 64.1217 32.042 63.856 31.6585 63.5095C33.7915 59.8827 35.529 56.3367 36.8711 52.8716C38.2372 49.3833 39.5553 44.9595 40.8255 39.6001C41.4726 39.6232 42.0118 39.6579 42.4432 39.7041C42.8746 39.7503 43.294 39.8196 43.7014 39.912C46.0501 44.3011 47.8595 48.4939 49.1297 52.4904C50.4239 56.4869 51.5024 61.2572 52.3652 66.8014ZM42.3354 42.8573C41.7602 45.2829 41.173 47.4775 40.5739 49.4411C39.9987 51.3816 39.3636 53.2296 38.6686 54.9853C39.8189 54.8236 41.0772 54.6965 42.4432 54.6041C43.8093 54.4886 45.2832 54.4078 46.865 54.3616C46.2658 52.3287 45.6067 50.3882 44.8878 48.5401C44.1688 46.6921 43.318 44.7978 42.3354 42.8573Z" fill="#181818"></path>
      <path d="M72.9724 65.1035C72.6608 65.5424 72.3253 65.9005 71.9658 66.1777C71.6063 66.478 71.1989 66.7321 70.7435 66.94C69.0659 64.1448 67.5081 61.8578 66.0701 60.079C64.6322 58.2772 62.8587 56.3945 60.7497 54.4309C59.9828 55.0315 59.4555 55.4473 59.1679 55.6783C58.8803 55.8862 58.6047 56.0826 58.3411 56.2674C58.389 58 58.4729 59.617 58.5928 61.1186C58.7365 62.6201 58.9283 64.3065 59.1679 66.1777C58.8084 66.247 58.389 66.3047 57.9097 66.3509C57.4304 66.4202 57.023 66.4549 56.6875 66.4549C56.2321 63.1977 55.9086 60.2754 55.7168 57.6881C55.5491 55.0777 55.4652 52.1092 55.4652 48.7827C55.4652 47.466 55.4892 46.0799 55.5371 44.6246C55.609 43.1461 55.7049 41.5868 55.8247 39.9466C56.304 39.8311 56.6755 39.7503 56.9391 39.7041C57.2267 39.6579 57.4903 39.6348 57.73 39.6348C57.9696 39.6348 58.2093 39.6579 58.449 39.7041C58.6886 39.7272 58.9403 39.7734 59.2039 39.8427C58.8923 41.76 58.6646 43.7121 58.5209 45.6987C58.3771 47.6623 58.3052 49.9493 58.3052 52.5597C58.3052 52.8138 58.3052 53.0795 58.3052 53.3567C58.3052 53.6108 58.3052 53.8649 58.3052 54.119C60.7018 52.063 62.5951 50.1226 63.9851 48.2976C65.3991 46.4495 66.9569 43.7814 68.6585 40.2931C69.0419 40.4548 69.4134 40.6743 69.7729 40.9515C70.1563 41.2287 70.5278 41.5752 70.8873 41.991C69.4973 44.4628 68.1672 46.5304 66.897 48.1936C65.6268 49.8338 64.1768 51.4047 62.5471 52.9062C64.6322 54.7081 66.3697 56.4291 67.7597 58.0693C69.1498 59.7094 70.8873 62.0542 72.9724 65.1035Z" fill="#181818"></path>
      <path d="M90.0779 64.4798C88.1846 64.757 86.1954 64.9649 84.1104 65.1035C82.0493 65.2652 79.7965 65.3807 77.352 65.45C76.6569 61.0146 76.0818 56.51 75.6264 51.936C75.195 47.3389 74.9554 43.3887 74.9074 40.0852C78.2387 39.5308 80.9109 39.1496 82.924 38.9417C84.9372 38.7338 87.0462 38.6068 89.2511 38.5606C89.2511 38.9764 89.2271 39.3807 89.1792 39.7734C89.1552 40.143 89.1073 40.4895 89.0354 40.8129C87.0702 40.836 85.1769 40.9284 83.3554 41.0901C81.558 41.2287 79.7845 41.4366 78.035 41.7138C77.9871 43.0999 77.9871 44.5321 78.035 46.0106C78.0829 47.4891 78.1668 49.083 78.2866 50.7925C80.5874 50.3998 82.3608 50.1226 83.6071 49.9609C84.8773 49.7761 86.1355 49.6374 87.3817 49.545C87.4776 49.8685 87.5375 50.2034 87.5615 50.5499C87.6094 50.8964 87.6214 51.2776 87.5974 51.6934C85.776 51.832 84.1942 51.9822 82.8522 52.1439C81.534 52.2825 80.0601 52.4789 78.4304 52.733C78.5982 54.6272 78.7779 56.4638 78.9697 58.2425C79.1853 60.0213 79.425 61.7192 79.6886 63.3363C81.6778 63.2901 83.4872 63.1746 85.1169 62.9898C86.7706 62.805 88.3643 62.5508 89.8982 62.2274C89.994 62.5508 90.0539 62.932 90.0779 63.3709C90.1258 63.8098 90.1258 64.1794 90.0779 64.4798Z" fill="#181818"></path>
      <path d="M110.983 63.8214C110.744 64.0293 110.372 64.2487 109.869 64.4798C109.366 64.7339 108.898 64.9071 108.467 64.9995C107.101 62.0426 105.915 59.6979 104.908 57.9653C103.925 56.2327 102.835 54.581 101.637 53.0102C101.061 53.2643 100.414 53.5068 99.6954 53.7379C99.0004 53.9458 98.2454 54.1537 97.4306 54.3616C97.3587 56.2096 97.2748 57.9422 97.1789 59.5593C97.0831 61.1763 96.9633 62.7241 96.8195 64.2025C96.46 64.2488 96.0406 64.2488 95.5612 64.2025C95.1059 64.1794 94.7344 64.1332 94.4468 64.0639C94.5667 62.239 94.6386 60.7721 94.6625 59.6632C94.7104 58.5313 94.7344 57.3531 94.7344 56.1288C94.7344 52.4095 94.6745 49.4642 94.5547 47.2927C94.4348 45.1212 94.2072 42.5801 93.8716 39.6694C94.9261 38.9533 96.1244 38.3873 97.4665 37.9715C98.8326 37.5557 100.175 37.3478 101.493 37.3478C103.865 37.3478 105.735 37.9484 107.101 39.1496C108.491 40.3509 109.186 41.9564 109.186 43.9662C109.186 45.6756 108.743 47.2003 107.856 48.5401C106.969 49.8569 105.627 51.0119 103.83 52.0053C104.98 53.322 106.154 54.9737 107.353 56.9604C108.551 58.924 109.761 61.211 110.983 63.8214ZM96.9992 40.3278C97.167 42.3838 97.2868 44.1856 97.3587 45.7334C97.4306 47.2812 97.4665 48.8289 97.4665 50.3767C97.4665 50.7232 97.4665 51.0697 97.4665 51.4162C97.4665 51.7396 97.4665 52.0746 97.4665 52.4211C100.462 51.705 102.679 50.7001 104.117 49.4064C105.555 48.1128 106.274 46.4611 106.274 44.4513C106.274 42.8111 105.831 41.5521 104.944 40.6743C104.081 39.7734 102.835 39.3229 101.205 39.3229C100.486 39.3229 99.7673 39.4153 99.0483 39.6001C98.3533 39.7618 97.6703 40.0044 96.9992 40.3278Z" fill="#181818"></path>
    </g></defs>
                <use xlink:href="#logo-mobile"></use>
              </svg>