<svg xmlns:xlink="http://www.w3.org/1999/xlink" xmlns="http://www.w3.org/2000/svg" class="cat-button__icon" width="47" height="23" viewBox="0 0 47 23"><defs><g id="face-mouth">
          <path fill-rule="evenodd" clip-rule="evenodd" d="M23.8401 1.94281C23.4784 1.59347 23.0458 1.24389 22.5602 0.954215C21.6075 0.385816 20.3601 -0.000863329 19.0349 0.440872C18.3387 0.672943 17.0484 1.2354 15.4987 1.92937C14.9161 2.1903 14.2931 2.47152 13.6428 2.76507C12.5389 3.26343 11.3562 3.7973 10.1587 4.32766C8.25828 5.16925 6.34102 5.99267 4.6861 6.63176C3.00549 7.28078 1.67299 7.70822 0.907046 7.80397L0.802734 9.27175C1.10827 9.35508 1.41249 9.43621 1.71533 9.51519C3.78233 11.8458 7.17662 14.9004 11.0167 17.4398C15.1075 20.1451 19.8291 22.3498 24.0576 22.3498C28.2862 22.3498 33.0078 20.1451 37.0986 17.4398C41.0216 14.8455 44.4794 11.7136 46.5321 9.36517C46.647 9.33434 46.7622 9.3032 46.8775 9.27175L46.7732 7.80397C46.0073 7.70822 44.6748 7.28078 42.9942 6.63176C41.3392 5.99267 39.422 5.16925 37.5216 4.32766C36.324 3.7973 35.1413 3.26342 34.0374 2.76506C33.3871 2.47151 32.7642 2.19029 32.1815 1.92937C30.6319 1.2354 29.3416 0.672943 28.6454 0.440872C27.3202 -0.000863329 26.0728 0.385816 25.12 0.954215C24.6344 1.24389 24.2019 1.59347 23.8401 1.94281ZM43.7639 8.51736C43.3443 8.36903 42.9053 8.20539 42.4538 8.03105C40.7643 7.3786 38.8205 6.5434 36.9142 5.69919C35.7134 5.1674 34.5192 4.62833 33.4108 4.12797C32.762 3.8351 32.1426 3.55549 31.5684 3.29837C29.9912 2.59203 28.78 2.06687 28.171 1.8639C27.408 1.60956 26.6252 1.80294 25.8885 2.2424C25.149 2.68358 24.5474 3.32333 24.233 3.76355L23.8401 3.48294L23.4473 3.76355C23.1328 3.32333 22.5313 2.68358 21.7917 2.2424C21.0551 1.80294 20.2722 1.60956 19.5092 1.8639C18.9003 2.06687 17.6891 2.59203 16.1118 3.29837C15.5376 3.5555 14.9182 3.83511 14.2694 4.12798C13.161 4.62834 11.9668 5.1674 10.766 5.69919C8.85975 6.5434 6.91597 7.3786 5.22647 8.03105C4.775 8.20539 4.33594 8.36903 3.91633 8.51736C12.1154 10.4611 19.161 10.8323 23.8401 10.8433C28.5193 10.8323 35.5648 10.4611 43.7639 8.51736ZM24.0576 12.3425C28.7595 12.3208 35.7324 11.9343 43.8352 10.0416C41.8722 11.9954 39.2095 14.2456 36.2712 16.1887C32.2483 18.849 27.834 20.8498 24.0576 20.8498C20.2813 20.8498 15.8669 18.849 11.8441 16.1887C8.97091 14.2886 6.36129 12.095 4.41168 10.1719C12.2727 11.9522 19.0307 12.3213 23.6227 12.3425V12.3435C23.6946 12.3435 23.7671 12.3434 23.8401 12.3433C23.9132 12.3434 23.9857 12.3435 24.0576 12.3435V12.3425Z"></path>
        </g></defs>
                        <use xlink:href="#face-mouth"></use>
                      </svg>