<svg xmlns:xlink="http://www.w3.org/1999/xlink" xmlns="http://www.w3.org/2000/svg" class="cat-button__icon" width="33" height="37" viewBox="0 0 33 37"><defs><g id="face-nose">
          <path fill-rule="evenodd" clip-rule="evenodd" d="M25.5957 19.7933L20.4529 1.19993L21.8986 0.800049L26.9547 19.0798C27.6496 19.4581 28.5796 20.0611 29.4441 20.8197C30.4266 21.6821 31.4117 22.8211 31.787 24.1345C32.6588 27.1858 31.3832 30.4319 28.5338 31.3817C27.8705 31.6028 27.2197 31.7092 26.6159 31.7798C26.3242 31.814 26.0701 31.8378 25.8287 31.8604C25.5274 31.8887 25.2461 31.9151 24.9364 31.9573C23.9611 32.0903 23.2191 32.3309 22.615 33.0411C22.0742 34.256 20.8435 35.0177 19.6941 35.472C18.4823 35.951 17.1641 36.1673 16.2765 36.1673C15.3921 36.1673 14.0174 35.9522 12.7497 35.4768C11.5558 35.029 10.2463 34.2713 9.69522 33.0415C9.09108 32.3309 8.34898 32.0903 7.37349 31.9573C7.06379 31.9151 6.78244 31.8887 6.48118 31.8604C6.23982 31.8378 5.98568 31.814 5.69395 31.7798C5.0902 31.7092 4.43935 31.6028 3.77609 31.3817C0.926681 30.4319 -0.348905 27.1858 0.522898 24.1345C0.898173 22.8211 1.88323 21.6821 2.8658 20.8197C3.73025 20.0611 4.66023 19.4581 5.35517 19.0798L10.4113 0.800049L11.857 1.19993L6.71414 19.7933C6.6575 19.998 6.5167 20.1692 6.32669 20.2642C5.71824 20.5684 4.74456 21.1666 3.85523 21.9471C2.9521 22.7398 2.22287 23.6447 1.96518 24.5466C1.25457 27.0338 2.35261 29.3261 4.25043 29.9587C4.77399 30.1332 5.30996 30.2247 5.86829 30.29C6.07749 30.3145 6.31491 30.3373 6.55892 30.3608C6.76719 30.3808 6.98027 30.4013 7.18467 30.4236C6.74913 30.1347 6.34512 29.9055 6.05105 29.7585L6.72187 28.4169C7.29155 28.7017 8.16868 29.2243 8.99326 29.8881C9.79986 30.5375 10.6496 31.3954 11.0393 32.3697C11.3114 33.05 12.1336 33.6437 13.2764 34.0723C14.3821 34.4869 15.5786 34.6673 16.2765 34.6673C16.9714 34.6673 18.1028 34.4881 19.1427 34.077C20.2095 33.6554 20.992 33.066 21.2705 32.3697C21.6603 31.3954 22.51 30.5375 23.3166 29.8881C24.1412 29.2243 25.0183 28.7017 25.588 28.4169L26.2588 29.7585C25.9648 29.9055 25.5607 30.1347 25.1252 30.4236C25.3296 30.4013 25.5427 30.3808 25.751 30.3608C25.995 30.3373 26.2324 30.3145 26.4416 30.29C26.9999 30.2247 27.5359 30.1332 28.0594 29.9587C29.9573 29.3261 31.0553 27.0338 30.3447 24.5466C30.087 23.6447 29.3578 22.7398 28.4546 21.9471C27.5653 21.1666 26.5916 20.5684 25.9832 20.2642C25.7932 20.1692 25.6524 19.998 25.5957 19.7933Z"></path>
        </g></defs>
                        <use xlink:href="#face-nose"></use>
                      </svg>