<svg xmlns:xlink="http://www.w3.org/1999/xlink" xmlns="http://www.w3.org/2000/svg" class="button__icon" width="23" height="17" viewBox="0 0 23 17"><defs><g id="random">
          <path fill-rule="evenodd" clip-rule="evenodd" d="M16.3195 1.43433C14.9388 1.43433 13.8195 2.55361 13.8195 3.93433V12.9343C13.8195 14.315 14.9388 15.4343 16.3195 15.4343C17.7002 15.4343 18.8195 14.315 18.8195 12.9343H19.8195C19.8195 14.8673 18.2525 16.4343 16.3195 16.4343C14.3865 16.4343 12.8195 14.8673 12.8195 12.9343V3.43433C13.0621 1.73818 14.5563 0.434326 16.3195 0.434326C18.0827 0.434326 19.5769 1.73818 19.8195 3.43433V7.57047L21.938 5.06949L22.701 5.71583L19.3195 9.70791L15.938 5.71583L16.701 5.06949L18.8195 7.57047V3.93433C18.8195 2.55361 17.7002 1.43433 16.3195 1.43433Z"></path>
          <path fill-rule="evenodd" clip-rule="evenodd" d="M7.31951 15.4343C8.70022 15.4343 9.81951 14.315 9.81951 12.9343V3.93433C9.81951 2.55361 8.70022 1.43433 7.31951 1.43433C5.9388 1.43433 4.81951 2.55361 4.81951 3.93433H3.81951C3.81951 2.00133 5.38651 0.434326 7.31951 0.434326C9.25251 0.434326 10.8195 2.00133 10.8195 3.93433V13.4343C10.5769 15.1305 9.08275 16.4343 7.31951 16.4343C5.55627 16.4343 4.06213 15.1305 3.81951 13.4343V9.29819L1.70103 11.7992L0.937988 11.1528L4.31951 7.16074L7.70103 11.1528L6.93799 11.7992L4.81951 9.29819V12.9343C4.81951 14.315 5.9388 15.4343 7.31951 15.4343Z"></path>
        </g></defs>
                    <use xlink:href="#random"></use>
                  </svg>