<svg xmlns:xlink="http://www.w3.org/1999/xlink" xmlns="http://www.w3.org/2000/svg" class="button__icon" width="14" height="15" viewBox="0 0 14 15"><defs><g id="reset">
          <path fill-rule="evenodd" clip-rule="evenodd" d="M13.1281 0.254395L13.5519 4.75897L9.03893 4.43601L9.11031 3.43856L11.9192 3.63958C10.8109 2.48239 9.24117 1.76001 7.4991 1.76001C4.13502 1.76001 1.41846 4.4521 1.41846 7.76001C1.41846 11.0679 4.13502 13.76 7.4991 13.76C9.57827 13.76 11.412 12.731 12.5086 11.1619L13.3283 11.7348C12.0506 13.5628 9.91535 14.76 7.4991 14.76C3.5944 14.76 0.418457 11.6318 0.418457 7.76001C0.418457 3.88823 3.5944 0.760013 7.4991 0.760013C9.37559 0.760013 11.0826 1.48207 12.3501 2.66092L12.1325 0.348042L13.1281 0.254395Z"></path>
        </g></defs>
                    <use xlink:href="#reset"></use>
                  </svg>